<svg width="18" height="23" viewBox="0 0 18 23" fill="none" xmlns="http://www.w3.org/2000/svg">
<g id="Group 415">
<g id="Group">
<g id="Group_2">
<path id="Vector" d="M17.5625 6.02691C16.7201 3.37778 14.5321 1.23029 11.8522 0.422373C8.99839 -0.437926 6.02325 0.0290817 3.68969 1.70363C2.57154 2.50598 1.64371 3.5643 1.00656 4.76402C0.348041 6.004 0 7.39999 0 8.80115C0 10.7125 0.621093 12.5289 1.79618 14.0539L9.00093 23L16.1967 14.0653L16.2057 14.0539C17.9642 11.7715 18.4588 8.84571 17.5625 6.02691ZM15.1022 13.2396L9.00093 20.8159L2.89965 13.2396C1.90864 11.9508 1.38478 10.4161 1.38478 8.80115C1.38478 6.44127 2.55359 4.19361 4.51138 2.78872C6.48712 1.37094 9.01344 0.977831 11.4426 1.71006C13.6923 2.38829 15.5305 4.19513 16.2397 6.42546C17.0024 8.82437 16.5878 11.3077 15.1022 13.2396Z" fill="#0CAE49"/>
</g>
</g>
<g id="Group_3">
<g id="Group_4">
<path id="Vector_2" d="M9.00289 4.08203C6.33047 4.08203 4.15625 6.19852 4.15625 8.79999C4.15625 11.4015 6.33047 13.518 9.00289 13.518C11.6753 13.518 13.8495 11.4015 13.8495 8.79999C13.8495 6.19852 11.6753 4.08203 9.00289 4.08203ZM9.00289 12.17C7.09402 12.17 5.54098 10.6582 5.54098 8.79999C5.54098 6.9418 7.09397 5.43 9.00289 5.43C10.9118 5.43 12.4648 6.94176 12.4648 8.79999C12.4648 10.6582 10.9118 12.17 9.00289 12.17Z" fill="#0CAE49"/>
</g>
</g>
</g>
</svg>
