<svg width="176" height="47" viewBox="0 0 176 47" fill="none" xmlns="http://www.w3.org/2000/svg">
<g id="&#208;&#155;&#208;&#190;&#208;&#179;&#208;&#190;&#209;&#130;&#208;&#184;&#208;&#191;">
<path id="Vector" d="M176.002 46.2526H168.712C169.963 45.1839 169.1 44.5641 168.561 43.8374C167.072 41.8069 165.584 39.7765 164.031 37.6605C163.19 38.4727 162.198 39.1566 161.529 40.0543C161.508 40.097 161.421 43.7091 161.637 44.7778C161.745 45.2694 162.09 45.7824 162.543 46.2312L156.741 46.2098C157.28 45.761 157.582 45.2694 157.69 44.7351C157.819 44.0084 157.819 34.711 157.755 30.821C157.755 30.1584 157.819 29.4531 157.668 28.7692C157.517 27.9997 156.547 27.5723 156.547 27.5723H162.802C161.421 28.0852 161.572 29.5386 161.572 30.5645C161.572 32.0607 161.572 33.5568 161.572 35.3308C164.139 33.0225 168.453 29.1325 168.97 28.6623C169.466 28.1921 168 27.5936 168 27.5936H175.355C174.88 27.957 174.535 28.1921 174.233 28.4699C171.904 30.5432 169.574 32.595 167.288 34.6896C167.202 34.7751 166.835 35.1171 166.835 35.1171C166.835 35.1171 167.137 35.5445 167.202 35.6514C169.445 38.7078 171.688 41.7214 174.017 44.7351C174.535 45.419 175.074 45.761 176.002 46.2526Z" fill="#373737"/>
<path id="Vector_2" d="M77.1068 36.5708C79.1774 37.7035 79.8676 39.5416 79.5656 41.7645C79.199 44.4148 77.7107 46.1246 75.0362 46.2315C70.6362 46.2529 65.848 46.2529 61.2539 46.2529C61.901 45.804 62.2245 45.0774 62.3539 44.201C62.4833 43.3889 62.548 35.1815 62.4833 31.7617C62.4617 30.4366 62.7637 28.7695 61.4049 27.5726C61.4049 27.5939 70.1617 27.5512 74.1088 27.5726C75.9205 27.5939 77.6029 28.1924 78.4441 29.8381C79.3499 31.6121 79.4146 33.4716 78.2931 35.2242C77.9911 35.6944 77.5382 36.0792 77.1068 36.5708ZM66.2794 43.3034C68.6519 43.3034 70.9166 43.3461 73.1813 43.282C74.9284 43.2392 75.8343 42.2561 75.8343 40.6958C75.8127 39.1356 74.9715 38.302 73.2676 38.131C72.9872 38.1096 72.6853 38.0883 72.4049 38.0883C70.3774 38.0883 68.35 38.0883 66.301 38.0883C66.2794 39.905 66.2794 41.5721 66.2794 43.3034ZM66.301 35.0533C67.9186 35.0533 69.4715 35.0746 71.046 35.0533C72.0166 35.0319 72.9872 34.9891 73.9362 34.8395C75.1225 34.6685 75.3166 33.7495 75.3382 32.7663C75.3598 31.8045 75.0362 30.8213 73.9794 30.7786C71.4343 30.6503 68.8676 30.7358 66.3225 30.7358C66.301 32.1037 66.301 33.5144 66.301 35.0533Z" fill="#373737"/>
<path id="Vector_3" d="M2.58974 17.6116C3.40935 11.3706 5.15641 5.4502 9.03875 0.299226C8.77993 1.02592 8.62894 1.79536 8.41326 2.54343C8.28384 3.01364 8.11131 3.46248 7.93876 3.99681C8.69366 3.99681 9.10346 4.03956 9.77209 3.97544C9.87993 3.97544 10.3329 3.95407 10.3329 3.95407C10.3329 3.95407 10.5485 3.41973 10.6133 3.27012C11.0231 2.18008 11.3682 1.06867 11.9936 0C11.7564 1.32515 11.5191 2.62892 11.2819 3.97544L14.9917 4.8945V0.512959C15.9623 3.8472 15.7034 7.24556 15.6172 10.9645C16.4368 9.76762 19.1976 6.94634 21.0956 5.2151C22.2819 4.12506 23.0583 3.67621 23.0583 3.67621C23.0583 3.67621 19.0897 7.58754 15.0564 13.2728C8.47797 22.3565 5.04856 32.402 5.76032 43.6658C5.82503 44.7772 5.99758 45.8886 6.06229 47C2.35249 37.5102 1.25249 27.6999 2.58974 17.6116ZM4.07798 19.3856H7.74464C7.85248 17.9322 7.96032 16.6071 8.06816 15.0682C7.0113 15.111 6.04072 15.1323 5.11327 15.2178C5.02699 15.2178 4.72504 15.2606 4.72504 15.2606C4.72504 15.2606 4.63876 15.6453 4.61719 15.7522C4.40151 16.9491 4.25053 18.146 4.07798 19.3856ZM7.59365 20.497C6.55836 20.497 5.60934 20.4543 4.63876 20.5184C4.53091 20.5184 4.07798 20.5612 4.07798 20.5612C4.07798 20.5612 3.9917 20.9031 3.9917 21.01C3.88386 22.1214 3.84073 23.2542 3.79759 24.3442H7.59365V20.497ZM10.3544 8.7417C11.8427 9.14779 13.1799 9.51114 14.5819 9.89586C14.6466 9.10505 14.8191 6.92497 14.8191 6.92497C14.8191 6.92497 14.6034 6.8181 14.4093 6.75397C13.3309 6.28376 12.2093 5.85629 10.9584 5.36471C10.7211 6.64711 10.527 7.69441 10.3544 8.7417ZM14.7113 12.2256L10.2035 10.4943C10.1172 11.3279 10.0309 11.9263 9.98777 12.5034C9.92307 13.2942 9.87993 14.1278 9.87993 14.1278C9.87993 14.1278 10.6133 14.3629 11.4113 14.598C11.8211 14.7049 12.2093 14.8759 12.7054 15.0682L14.7113 12.2256ZM8.82306 10.4088C7.89562 10.4088 7.11915 10.3874 6.32112 10.4302C6.08386 10.4516 5.76032 10.4729 5.76032 10.4729C5.76032 10.4729 5.0917 13.166 4.76817 14.427C5.8466 14.2988 8.1113 14.0637 8.1113 14.0637C8.1113 14.0637 8.21915 13.7431 8.26229 13.5293C8.49954 12.5462 8.62895 11.563 8.82306 10.4088ZM6.08385 9.21191C7.05444 9.08367 7.89562 9.01956 8.71522 8.86994C8.8015 8.84857 9.14659 8.80582 9.14659 8.80582C9.14659 8.80582 9.2113 8.57071 9.23287 8.48522C9.51326 7.52342 9.75051 6.45475 10.0309 5.34334C9.21129 5.30059 8.62895 5.32197 7.96032 5.34334C7.85248 5.34334 7.39954 5.40746 7.39954 5.40746C7.39954 5.40746 7.27012 5.66394 7.22698 5.77081C6.81718 6.88222 6.47209 8.03638 6.08385 9.21191ZM9.81521 19.578C10.4407 18.6376 10.9152 17.9109 11.3897 17.1842C11.7133 16.6926 11.5838 16.3079 11.0878 16.0514C10.7211 15.859 10.3113 15.7308 9.81521 15.5384V19.578ZM3.927 30.457C4.07798 32.0173 4.20739 33.4493 4.35837 34.9027C4.37994 34.9027 4.37994 34.9027 4.40151 34.9027C4.76817 33.4279 5.13484 31.9959 5.52308 30.457H3.927ZM7.14072 25.4129C6.08386 25.4129 5.19954 25.3702 4.31523 25.4343C4.20738 25.4343 3.75445 25.4984 3.75445 25.4984C3.75445 25.4984 3.73289 25.9045 3.73289 26.0114C3.66818 27.1014 3.71131 28.1915 3.71131 29.6235L5.8466 29.2174C5.8466 29.196 5.8466 29.2174 5.8466 29.2174C5.8466 29.2174 6.70935 26.7594 7.14072 25.4129Z" fill="#137513"/>
<path id="Vector_4" d="M82 27.5709C86.6157 27.5709 90.8647 27.4854 95.0921 27.6136C97.1411 27.6778 98.7804 28.6823 99.4058 30.7341C100.074 32.8928 100.161 35.0943 98.4137 36.8469C97.6588 37.6164 96.4941 38.0011 95.3941 38.6209C97.2059 41.0361 98.1333 44.1566 100.873 46.2726C98.7157 46.2726 96.6882 46.2726 94.4882 46.2726C95.6098 45.3535 94.898 44.6268 94.4451 43.8788C93.5392 42.3826 92.6333 40.8865 91.7706 39.369C91.447 38.7919 91.0588 38.5782 90.4117 38.6209C89.247 38.6637 88.0608 38.6423 86.7882 38.6423C86.7882 40.801 86.7451 42.8528 86.8314 44.9047C86.8529 45.3535 87.1765 45.952 87.7588 46.2939C85.9686 46.2939 83.9196 46.2939 82.0431 46.2939C82.6039 45.9306 82.949 45.4176 82.949 45.0543C82.949 44.6909 83.0137 42.6391 83.0353 41.5491C83.1216 38.0224 83.0784 34.4958 83.0569 30.9692C83.0784 29.8151 83.4451 28.5968 82 27.5709ZM86.8314 35.5218C89.247 35.5218 91.5333 35.6073 93.8196 35.5004C95.4372 35.4363 96.149 34.4745 96.0843 32.8715C96.0196 31.3753 95.2 30.6273 93.5608 30.5845C93.0863 30.5631 92.6333 30.5418 92.1588 30.5418C90.3902 30.5418 88.6 30.5418 86.8098 30.5418C86.8314 32.273 86.8314 33.8547 86.8314 35.5218Z" fill="#373737"/>
<path id="Vector_5" d="M111.961 43.2179C111.961 39.157 111.983 35.0961 111.961 31.0565C111.961 29.9023 112.134 28.6841 110.948 27.8505C110.754 27.7223 110.344 27.5726 110.344 27.5726C110.344 27.5726 111.94 27.5726 111.983 27.5726C115.671 27.5726 118.777 27.4444 122.465 27.594C126.089 27.7436 128.483 29.9023 129.389 33.664C129.993 36.1647 129.971 38.6868 129.108 41.1447C128.095 44.0515 126.132 45.8682 122.983 46.2529C122.487 46.3171 121.775 46.2743 121.279 46.2743C117.677 46.2743 114.269 46.2743 110.667 46.2743C112.091 45.74 111.961 44.3721 111.961 43.2179ZM115.714 43.3034C117.634 43.3034 119.424 43.3462 121.214 43.2821C123.328 43.2179 124.816 42.1279 125.485 40.1402C126.175 38.0242 126.434 35.951 125.722 33.835C125.248 32.4244 124.428 31.2275 122.53 30.6931C120.632 30.1588 118.065 30.3939 115.714 30.4153V43.3034Z" fill="#373737"/>
<path id="Vector_6" d="M154.688 28.6844C154.084 30.0309 153.07 32.1896 152.337 33.7712C152.38 33.4079 152.1 32.9804 151.841 32.7453C150.137 31.1209 146.32 29.8813 143.818 30.9499C142.912 31.3347 142.178 31.9331 142.308 33.0445C142.437 34.0491 143.235 34.3056 144.098 34.4124C145.845 34.6475 147.592 34.7758 149.318 35.0964C151.561 35.4811 153.416 36.4643 154.106 38.8367C154.71 40.8886 154.365 42.8121 152.92 44.4365C151.927 45.5479 150.612 46.1036 149.167 46.3601C145.974 46.9586 142.955 46.5311 140.108 44.9922C139.698 44.7785 138.986 44.4793 138.641 44.5434C138.296 44.6075 138.016 44.9922 138.016 44.9922C138.016 44.9922 139.482 41.1664 140.108 39.4779C140.129 39.4779 140.129 39.4779 140.129 39.4779C140.388 41.658 141.963 42.2351 143.559 42.7908C145.069 43.3251 146.643 43.5816 148.196 43.1114C149.102 42.8335 150.072 42.2564 150.569 41.5084C151.108 40.7176 150.633 39.6061 149.684 39.4138C147.808 39.0291 145.91 38.8581 144.012 38.623C139.978 38.1314 137.972 35.2887 138.986 31.4629C139.633 29.0477 142.071 27.402 145.09 27.2737C147.484 27.1668 149.706 27.5943 151.863 28.6844C152.294 28.8981 152.769 29.0905 153.329 29.2187C153.869 29.3042 154.537 28.7485 154.688 28.6844Z" fill="#373737"/>
<path id="Vector_7" d="M27.3069 27.5936C26.552 28.0425 26.3794 28.4486 26.3363 29.3035C26.2932 30.1798 26.401 33.9629 26.401 34.9674H36.0637C36.0637 32.937 36.0637 29.4104 36.0206 28.8333C35.999 28.2562 35.4814 27.8501 35.0284 27.5936H41.0245C39.8814 27.9784 39.8598 30.2867 39.8382 31.6332C39.7735 35.4377 39.8167 39.2421 39.8167 43.0466C39.8167 44.1366 39.4931 45.3121 40.8519 46.2526H35.2225C35.7618 45.9106 36.1284 45.1198 36.15 44.4786C36.1716 43.8374 36.2363 40.5886 36.1931 38.1307H26.4441C26.4441 40.4176 26.4441 43.8374 26.4657 44.7351C26.5088 45.6327 26.8324 45.9106 27.4363 46.2526H21.7422C22.1736 45.9961 22.5618 45.5259 22.6481 44.6068C22.7343 42.897 22.6696 40.6741 22.6696 40.6741L22.6912 30.6287C22.6912 30.6287 22.9069 28.1493 21.7422 27.5723C21.7422 27.6364 27.3069 27.5936 27.3069 27.5936Z" fill="#373737"/>
<path id="Vector_8" d="M54.1385 46.2526H48.164C48.8758 45.7396 49.1562 45.1625 49.2425 44.5427C49.3287 43.8588 49.3934 40.6528 49.264 39.7978C49.0268 38.1735 48.3366 36.6559 47.2366 35.2239C45.8777 33.4286 44.7993 31.4408 43.5268 29.5814C43.0523 28.8974 42.4915 28.2348 41.6719 27.5723C42.9013 27.5723 48.8542 27.5723 48.8542 27.5723C48.8542 27.5723 48.2072 27.9356 48.1424 28.0211C47.4307 28.7905 47.8405 29.5386 48.3797 30.3294C49.3072 31.7614 50.1699 33.2148 51.1621 34.8392C52.3699 32.9156 53.5346 31.163 54.5268 29.3249C54.9366 28.4272 53.9444 27.7646 53.4268 27.5936C55.4542 27.5936 60.8895 27.5936 60.8895 27.5936C60.8895 27.5936 60.5012 27.8929 60.4797 27.8929C59.7895 28.3631 59.2503 28.9188 58.7758 29.5386C57.762 30.8424 54.5915 36.1643 53.7719 37.3185C53.1895 38.1521 52.9307 38.9856 52.9738 40.0116C53.0385 41.2298 52.9307 42.4481 53.017 43.645C53.0385 44.4786 53.2542 45.6969 54.1385 46.2526Z" fill="#373737"/>
<path id="Vector_9" d="M102.234 46.2722C103.054 45.8234 103.399 45.2036 103.421 44.2845C103.464 40.2236 103.464 35.3291 103.421 31.2681C103.421 30.0498 103.679 28.7247 102.342 27.6133C104.305 27.6133 106.332 27.6133 108.274 27.6133C107.152 28.2331 107.195 30.0071 107.174 31.4177C107.109 35.1794 107.152 39.39 107.174 43.1517C107.174 44.2204 107.217 45.3532 108.489 46.2722C106.483 46.2722 103.701 46.2722 102.234 46.2722Z" fill="#373737"/>
<path id="Vector_10" d="M22.9241 15.539C21.6515 18.5741 20.1848 20.9893 17.0574 23.7892C12.2476 28.1066 9.65938 33.4499 8.04174 39.4558C7.82605 40.268 7.63193 41.0802 7.41625 41.8924C7.39468 42.0206 6.85547 44.8633 6.85547 44.8633C6.85547 44.8633 6.94174 41.9351 6.96331 41.8283C7.04959 40.9092 7.11429 39.9902 7.2437 39.0711C7.86919 34.8392 8.81821 30.6927 11.4927 27.2303C13.3907 24.7937 15.5476 22.5495 17.6398 20.2626C20.4221 17.2489 22.5574 14.0002 23.5927 10.0033C23.7652 9.38352 23.8084 8.01562 23.8084 8.01562C23.8084 8.01562 24.8652 10.901 22.9241 15.539Z" fill="#137513"/>
<path id="Vector_11" d="M8.5 42.768C8.95294 35.3942 13.3098 30.8631 16.8902 28.1914C12.5333 32.979 10.3549 35.8644 8.5 42.768Z" fill="#137513"/>
<path id="Vector_12" d="M4.57254 46.6791C0.452943 42.4258 0.0215686 38.7068 0 34.9023C0.819606 38.7495 0.970589 41.2716 4.57254 46.6791Z" fill="#137513"/>
</g>
</svg>
