<svg width="20" height="20" viewBox="0 0 20 20" fill="none" xmlns="http://www.w3.org/2000/svg">
<path id="Vector" d="M14.374 20C13.7284 20 13.0883 19.8859 12.4623 19.6585C9.70467 18.6567 7.145 17.0251 5.05992 14.9401C2.97484 12.8551 1.34325 10.2954 0.341533 7.53774C0.0196307 6.65152 -0.0753659 5.73672 0.0592776 4.81863C0.185406 3.95867 0.518519 3.12382 1.02264 2.40432C1.52899 1.68165 2.20404 1.08058 2.9748 0.666105C3.79672 0.224131 4.69384 0 5.6413 0C5.93598 0 6.19066 0.20589 6.25241 0.494003L7.23339 5.0719C7.27781 5.2792 7.2141 5.49489 7.06422 5.64481L5.38799 7.32099C6.96926 10.4648 9.53511 13.0307 12.679 14.6119L14.3552 12.9357C14.5051 12.7858 14.7208 12.7222 14.9281 12.7665L19.506 13.7475C19.7941 13.8093 20 14.064 20 14.3586C20 15.3061 19.7759 16.2032 19.3339 17.0252C18.9194 17.7959 18.3183 18.471 17.5956 18.9773C16.8762 19.4814 16.0413 19.8145 15.1813 19.9407C14.9118 19.9802 14.6424 20 14.374 20ZM5.14194 1.27729C3.89219 1.41525 2.78293 2.07031 2.04631 3.12163C1.21799 4.30381 1.02483 5.75785 1.51637 7.111C3.44224 12.4126 7.58744 16.5578 12.889 18.4836C14.2422 18.9752 15.6962 18.782 16.8784 17.9537C17.9298 17.2171 18.5848 16.1078 18.7228 14.8581L14.9987 14.06L13.2481 15.8106C13.0618 15.9969 12.7788 16.0464 12.5404 15.9343C8.8222 14.1875 5.81247 11.1778 4.06566 7.45962C3.95367 7.22123 4.00312 6.93819 4.1894 6.75195L5.93996 5.0014L5.14194 1.27729Z" fill="#3A3A3A"/>
</svg>
